# xmcd CD database file
#
# Track frame offsets:
#	150
#	12105
#	27253
#	39599
#	53713
#	70916
#	88062
#	100588
#	125337
#	142853
#	155132
#	173666
#	190596
#
# Disc length: 2666 seconds
#
# Revision: 0
# Processed by: cddbd v1.5.2PL0 Copyright (c) Steve Scherf et al.
# Submitted via: CDex 1.79
#
DISCID=9e0a680d
DTITLE=Butch Martin - People Places and Mules
DYEAR=2005
DGENRE=Country
TTITLE0=Rayburn Crane
TTITLE1=Chasin` The Moon By The Tail
TTITLE2=Last Of The Singin` Cowboys
TTITLE3=One Kansas Night
TTITLE4=Wyoming On My Mind
TTITLE5=House Full Of Love
TTITLE6=The Preacher And The Bear
TTITLE7=Timothy`s Guitar
TTITLE8=Blue Sky Over Red River
TTITLE9=Only A Rodeo Clown
TTITLE10=The Reverend Mr Black
TTITLE11=The Love Song That I Promised
TTITLE12=Fox On The Run
EXTD=YEAR: 2005
EXTT0=
EXTT1=
EXTT2=
EXTT3=
EXTT4=
EXTT5=
EXTT6=
EXTT7=
EXTT8=
EXTT9=
EXTT10=
EXTT11=
EXTT12=
PLAYORDER=
